<svg xmlns="http://www.w3.org/2000/svg" viewBox="0 0 63.52 101.56"><defs><style>.cls-1{fill:#edbf98;}.cls-2{fill:#edc9ae;}.cls-3{fill:#a55907;}.cls-4{fill:#efbb60;}.cls-5{fill:#7d843a;}</style></defs><title>a1</title><g id="Layer_2" data-name="Layer 2"><g id="a1"><path class="cls-1" d="M22.89,72.07c2.62,7,2,10.5.94,12.17-.61,1,18.38.13,17.5-1.63s-4.39-21.09-1.76-22.85S22.89,72.07,22.89,72.07Z"/><path class="cls-2" d="M42,38.53c.82,9.71,4.3,18.34-1.56,23C35.12,65.75,24.34,72.9,21.12,72.94c-4.93.07-10.06-1.65-14.06-9.66C3.94,57,1.28,43.37.91,42.19c-1-3.07.89-13.59.87-19.34,0-11.39,7.77-17,15.81-17.68,7.66-.65,14.94,5.37,19.58,15A52.89,52.89,0,0,1,42,38.53Z"/><path class="cls-3" d="M7.94,55.37l5.27.88,9.66-.88c.28.58-5.06,5.32-7,5.27-2.68-.07-8.39-3.28-7.9-5.27"/><path class="cls-4" d="M11.45,47.46c5.27.88,7,0,7,0s-1.76-1.76-2.64-1.76S15,33.4,15,33.4s-3.52,12.3-4.4,12.3S11.45,47.46,11.45,47.46Z"/><path class="cls-3" d="M7.94,8.79C4.51,9.26-2.49,22.8.91,22S13.14,4.76,17.6,11.43c0,0,14.06,14.06,19.34,13.18s-1.76,14.06,2.63,15.82-2.34,16.79-.88,23.72c.78,3.69,21.76-18.86,23.73-24.6,4.66-13.61-18.84-6.43-20.21-26.36-.59-8.53-9.11-4-17.58-11.43C17.25-4.73,7.94,8.79,7.94,8.79Z"/><ellipse class="cls-5" cx="25.58" cy="34.91" rx="1.45" ry="0.72"/><ellipse class="cls-5" cx="3.48" cy="34.91" rx="1.45" ry="0.72"/><path class="cls-5" d="M15,101.56S24.69,87,23.75,84.37c-1-2.86,15.9-2.18,16-8.74s1.92-2.24,1.55,0c-.88,5.23,30.36,26,20.13,26Z"/></g></g></svg>
