<svg xmlns="http://www.w3.org/2000/svg" viewBox="0 0 59.67 100.44"><defs><style>.cls-1{fill:#5579a5;}.cls-2{fill:#2c7777;}.cls-3{fill:#367f76;}.cls-4{fill:#f7c394;}.cls-5{fill:#d8a356;}.cls-6{fill:#efbb60;}.cls-7{fill:#1a5051;}.cls-8{fill:#21665e;}</style></defs><title>a2_1</title><g id="Layer_2" data-name="Layer 2"><g id="a2"><path class="cls-1" d="M.17,83.81s-.76-21.26.94-21.56,43-9,46-8,11,7,12,12,.36,14.57.34,16.81c0,1.7-7.48,9.81-10.21,11.68C39.53,101.41,10.74,106.61.17,83.81Z"/><path class="cls-2" d="M38.11,53.25s9-1,9,3-5,7-4,8,0,7-2,9-12,16-12,16l-4-14Z"/><path class="cls-3" d="M11.13,56.79s-15,4.46-9,9.46,7,5,7,5c-1,7-3,5-1,7s21,11,21,11l-4-15-14-17.46"/><path class="cls-4" d="M5.11,16.25s5,62,17,60,19-34,27-48-26-18-27-17S5.11,16.25,5.11,16.25Z"/><path class="cls-5" d="M16.11,53.25a17.07,17.07,0,0,1,3-1.5c1-.38,2.23.87,3,1,.44.08,1.26-1.17,2-1,2.38.54,5.43,1.27,5,1.5-.85.44-7.83,2.16-9,1.5S15.91,52.94,16.11,53.25Z"/><path class="cls-5" d="M2.11,8.1s7.39,4.22,7.39,0S18-.35,16.89,2.82s6.33,1.06,8.45,0S40.12-1.4,38,.71s-2.11,13.73,1.06,11.61,1.06,3.2,6.33,3.17c5.09,0,8.11,16.1,3.17,17.95-3,1.11-4.22,7.39-4.22,7.39s1-10.56,2.11-10.56-9.5-15.83-7.39-9.5,0,3.17,0,3.17S37,20.77,35.89,18.66s-11.61-4.22-8.44-1.06,3.16,5.28-2.11,1.06-9.51-3.17-9.51-3.17S21.11,17.6,19,17.6,9.28,12.92,6.11,19.25,2.11,8.1,2.11,8.1Z"/><path class="cls-6" d="M21.61,32.75s-7,10-6,10h1s12,1,12,0a3.19,3.19,0,0,0-3-3C23.61,39.75,21.61,32.75,21.61,32.75Z"/><path class="cls-7" d="M14.32,28.94c.77-1.19,1.74-1.39.56-2.16S9.22,29,10.2,28.8A22.66,22.66,0,0,1,14.32,28.94Z"/><path class="cls-7" d="M32.08,28.8c-.66-1.25-1.62-1.55-.36-2.21s5.43,2.74,4.47,2.44A22.26,22.26,0,0,0,32.08,28.8Z"/><circle class="cls-8" cx="31.11" cy="92.9" r="1.77"/></g></g></svg>
