<svg xmlns="http://www.w3.org/2000/svg" viewBox="0 0 74.79 104.04"><defs><style>.cls-1{fill:#bf8e4c;}.cls-2{fill:#d8a356;}.cls-3{fill:#66461b;}.cls-4{fill:#f4f1ef;}.cls-5{fill:#f7c394;}.cls-6{fill:#684c27;}.cls-7{fill:#f4f3f2;}</style></defs><title>a3</title><g id="Layer_2" data-name="Layer 2"><g id="a3"><path class="cls-1" d="M26.91,71.43s5.39,5.39,5.39,12.11,1,5.58,1,5.58a43.41,43.41,0,0,1,5.16,1.72c3.62,1.66,5.06-2.22,1.94-8.64-2.42-5,1.35-17.5,0-16.15S26.91,71.43,26.91,71.43Z"/><path class="cls-2" d="M49.36,33.24c1.33,19.82-6,38.53-17,40.24C23.11,74.92,14.45,60.42,4,41.83.18,35,7.65-3.19,18.84,4.15,32.81,13.3,48,13.56,49.36,33.24Z"/><path class="cls-3" d="M0,14.91,4,25.68s4-13.46,8.07-13.46c2,0,4.57,2.53,8.08,2.69s8.06-2,9.42-1.34c.93.46,6.6,1.78,12.11,4,3.8,1.56,4.87,8,5.38,8.08,2.66.17-.9-9.08-4-13.46C41.17,9.59,44.36,6,44.41,5.49c.12-1.14-3.08.59-6.73,1.35-2.74.57-5.38-4-8.07,0-2.57,3.85-7.49-4.06-8.08-4C19.08,2.91,16.2-.66,12.11.11c-2,.37-4.2,7.16-6.73,10.77S0,14.91,0,14.91Z"/><circle class="cls-4" cx="33.64" cy="28.37" r="9.42"/><circle class="cls-4" cx="9.42" cy="36.44" r="9.42"/><path class="cls-5" d="M20.19,58l4-4c0-.21,1.19.05,1.77.39,1,.58,1.44-2.7,3.62-1.74,1.7.76,15.87-3.59,13.45-2.69C39.49,51.22,32.3,56.63,29.61,58S20.19,58,20.19,58Z"/><ellipse class="cls-6" cx="4.71" cy="35.1" rx="2.02" ry="1.35" transform="translate(-12.14 3.95) rotate(-20.77)"/><ellipse class="cls-6" cx="30.28" cy="27.02" rx="2.02" ry="1.35" transform="translate(-10.27 25.42) rotate(-39.49)"/><path class="cls-5" d="M18.84,29.72V45.86s14.8-5.38,14.8-6.72-4-2.7-5.38-1.35-6.73,5.38-6.73,4S18.84,29.72,18.84,29.72Z"/><path class="cls-7" d="M32.26,84.5c1.05-.21-.93,4.62,4.45,4.62s3.84-6,3.84-6c.42-.65,31.12,9.57,34,15.41,4.73,9.65-56.9,3.42-58.45,4.3C13.43,104.39,23.49,86.18,32.26,84.5Z"/></g></g></svg>
