<svg xmlns="http://www.w3.org/2000/svg" viewBox="0 0 54.66 104.65"><defs><style>.cls-1{fill:#234466;}.cls-2{fill:#aa984b;}.cls-3{fill:#f7e69a;}.cls-4{fill:#fc9;}.cls-5{fill:#477fb2;}.cls-6{fill:#d8a356;}</style></defs><title>a4</title><g id="Layer_2" data-name="Layer 2"><g id="a4"><path class="cls-1" d="M54.32,85.47c0,.61.34,2.36.34,2.82-.09,1.78-14.17,13.49-19.84,14.94s-13.49,1.91-18.58.79c-3.43-.76-5.74-2.48-5.73-2.76C10.51,101.26,54.29,84.67,54.32,85.47Z"/><path class="cls-2" d="M54,80c.19.14.51,7.32.57,7.32C53.37,88,39.89,99,33.89,100s-22.08,1.09-23.27,1.29c-1.37.22-9-9.31-8.73-9.7Z"/><path class="cls-1" d="M52.66,70.53,54,80S34,91.64,29.71,92.13c-1,.12-25.1,5-28.06-.9-3.44-6.86-.11-5.78,0-9Z"/><path class="cls-2" d="M15.87,70.62S8.1,73.23,5.4,75.93,0,85.38,0,86.73s23,2.7,28.36,0,24.68-12,24.3-16.2-8.8-6.37-9.45-6.75S15.87,70.62,15.87,70.62Z"/><path class="cls-3" d="M16.2,63.78s-1.35,10.8,1.35,12.15,12.16,5.4,14.86,2.7,8.93-11.18,7.16-11S16.2,63.78,16.2,63.78Z"/><path class="cls-4" d="M43.21,17.87s9.45,10.8,9.45,16.2A91.25,91.25,0,0,1,50,53c-1.35,5.4-17.55,24.3-21.6,23S9.45,57,12.15,53,8.1,30,13.5,27.32,36.46,8.42,43.21,17.87Z"/><ellipse class="cls-5" cx="45.23" cy="31.37" rx="2.03" ry="1.35"/><path class="cls-6" d="M45.91,58.38s-5.4,5.4-6.75,2.7S45.91,58.38,45.91,58.38Z"/><ellipse class="cls-5" cx="27.68" cy="35.42" rx="2.03" ry="1.35"/><path class="cls-6" d="M37.81,28.67s2.7,23,6.75,21.61-5.4,5.4-5.4,4"/><path class="cls-3" d="M16.2,28.67s4.05-8.1,8.1-6.75,10.81,0,9.46-2.7,10.8,4.05,10.8,0,9.45-1.35,2.7-8.1,0-4-6.75-5.4c0,0-6.75-9.45-13.51-4S14.85,5.72,12.15,13.82c-1.76,5.28-2.22,5.71-2.7,10.8C9,29.47,0,30,2.7,32.72S1.35,48.93,9.45,48.93c0,0-6.75,8.1,1.35,6.75s10.8-9.46,8.1-10.81-9.45-2.7-5.4-4,8.1-6.75,6.75-8.1Z"/></g></g></svg>
