<svg xmlns="http://www.w3.org/2000/svg" viewBox="0 0 77.57 115.04"><defs><style>.cls-1{fill:#f2d9c7;}.cls-2{fill:#efb6b6;}.cls-3{fill:#edb4b4;}.cls-4{fill:#7f7906;}.cls-5{fill:#b2805b;}.cls-6{fill:#e0c0aa;}.cls-7{fill:#e8a0a0;}</style></defs><title>a5_1</title><g id="Layer_2" data-name="Layer 2"><g id="a5"><path class="cls-1" d="M41.83,69.94s-2.67,11.74-1.76,13.14-5.5,16.47-5.5,16.47H22c2,1.15,12.88-28.41,10.56-29.61C32,69.63,39.61,71.71,41.83,69.94Z"/><path class="cls-2" d="M40.16,83.59c.54-.81,17.63,5.28,19.84,10.56s5.62,21.14,4.12,20.89S0,114.64,0,114.64,1.67,96.22,6.35,93c5.86-4,23.57-10.22,23-8.74C28.18,87.8,38.29,86.37,40.16,83.59Z"/><path class="cls-1" d="M44.12,68.65c-6.27,6-17.75,4.35-21.56-3-5.09-9.86-8.43-32.51-5.27-38.74C23.59,14.48,35.6.72,43.76,1.24,64.32,2.57,67.81,30.49,60.87,46.8,57.61,54.47,50.61,62.4,44.12,68.65Z"/><path class="cls-3" d="M18.33,53.74c-.77,2.47,5,8.28,10.12,3.95"/><path class="cls-4" d="M22,33.58S17.59,27.71,15.15,31"/><path class="cls-4" d="M47.12,39s-5.94-5.15-8.47-2.34"/><path class="cls-5" d="M30.88,12.5C30,14,37.37,2.58,34.43,13.66,32.14,22.32,62.15,34,58.55,38.86c-15.78,21.47-13.68,45-6,41.6,4.34-1.9,7.3-4.55,6-2.27s0,8,0,8,10.23,2.56,10.57,0-5.78-2.29-1.69-6C77.52,71.09,70.29,41,70.29,41c8.14,1.55,10.26-22.41,2.15-26.11-3.67-1.68,3.71-7.41-15.51-13.78C38.7-4.9,25.91,14.9,23,17,17.74,20.84,30.48,13.66,30.88,12.5Z"/><path class="cls-6" d="M23.36,35.85s-.12.36-.34.92c-.81,2.19-3,7.5-4.76,7.4-2.24-.12,5.24,4.31,5.1,2.8s-.14-2.15-1.33-2.15,1.33-9.91,1.33-9.91"/><rect class="cls-7" x="10.19" y="92.14" width="4.3" height="23.06" rx="2.15" ry="2.15" transform="translate(-31.09 8.73) rotate(-17.8)"/><rect class="cls-7" x="5.32" y="96.1" width="4.3" height="18.72" rx="2.15" ry="2.15" transform="translate(-31.87 7.33) rotate(-17.8)"/><rect class="cls-7" x="15" y="89.4" width="4.94" height="25.77" rx="2.47" ry="2.47" transform="translate(-30.43 10.23) rotate(-17.8)"/><rect class="cls-7" x="20.48" y="86.9" width="4.94" height="28.63" rx="2.47" ry="2.47" transform="translate(-29.84 11.86) rotate(-17.8)"/></g></g></svg>
