<svg xmlns="http://www.w3.org/2000/svg" width="300" height="300" viewBox="0 0 300 300"><defs><style>.cls-1{fill:#f7c394;}.cls-2{fill:#fc9;}.cls-3{fill:#7f5737;}.cls-4{fill:#efbb60;}.cls-5{fill:#d8a356;}</style></defs><title>Artboard 1</title><g id="_1" data-name="1"><path class="cls-1" d="M161,235s-13,23-15,65H128s5-30-8-49Z"/><path class="cls-2" d="M129.5,73.5s-38,40-41,102,23,79,23,79,29,19,70-38,41-89,41-89l-7-34-13-15-22-12s-20-4-25-4S129.5,73.5,129.5,73.5Z"/><path class="cls-3" d="M119.5,96.5s-41,8-19-13c0,0-14-11-6-17s13-1,13-1,1-24,17-10c0,0-5-24,19-16,0,0,10-13,17-4,0,0,23-20,23,9,0,0,11-13,20-2,0,0,26-2,11,16,0,0,24-3,16,13,0,0,29,12,4,24,0,0,9-2,7,4,0,0,20,12,0,23,0,0,1,27-17,18,0,0,10,14-5,13s-8-14-8-14-6-11,2-19c0,0-15-7-12-17,0,0-19-2-17-20,0,0-8,12-17,0,0,0-14,18-18-2,0,0-12,17-22,9C127.5,90.5,125.5,98.5,119.5,96.5Z"/><path class="cls-4" d="M137.5,110.5s-15,25-26,34,16,2,16,2Z"/><path class="cls-5" d="M94,206s14,0,18-2a16.7,16.7,0,0,0,9,3s10,10,18,14C139,221,107,223,94,206Z"/><ellipse cx="158.5" cy="125" rx="2.5" ry="6" transform="translate(-6.06 241.9) rotate(-73.65)"/><ellipse cx="117.52" cy="115.35" rx="1.88" ry="5.16" transform="translate(-26.25 195.65) rotate(-73.65)"/></g></svg>
