<svg xmlns="http://www.w3.org/2000/svg" width="300" height="300" viewBox="0 0 300 300"><defs><style>.cls-1{fill:none;}.cls-2{fill:#edba2b;}.cls-3{fill:#f7c394;}.cls-4{fill:#fc9;}.cls-5{fill:#efbb60;}.cls-6{fill:#d8a356;}</style></defs><title>Artboard 2</title><g id="_2" data-name="2"><rect class="cls-1" width="300" height="300"/><path class="cls-2" d="M236.5,300s8.86-50.92,3.5-104S220.73,88.55,220.73,88.55L66,69,54.42,131.52,52,222s4.77,50.32,0,76.68"/><path class="cls-3" d="M164,238.82s-9.76,38.87-1.57,61.18H115.79s23-21.48,10.71-58.66Z"/><path class="cls-2" d="M98,43s4,17,46,15,70,40,73,64,23,74,23,74L230,97s-1-32-31-54-49-22-79-14S98,43,98,43Z"/><path class="cls-2" d="M52,222S39,112,57,71,98,43,98,43s3,13-5,22S66,84,63,110,52,222,52,222Z"/><path class="cls-4" d="M143,255s13.5,3.5,33.5-26.5,47-73,44-122S98,43,98,43L60.87,91.16s.45,83,26.07,120.71S126.54,257.84,143,255Z"/><ellipse cx="96.03" cy="110.57" rx="8.81" ry="4.19"/><ellipse cx="192.31" cy="112.23" rx="9.53" ry="4.11"/><path class="cls-5" d="M144.46,112.23s1.44,40.37,10,55.23-11.14,1.16-11.14,1.16Z"/><path class="cls-6" d="M129.38,209.71s6.62-7,10.51-7.43c0,0,3.46,1.06,5.49,0S156,209.71,156,209.71,141.09,218.88,129.38,209.71Z"/></g></svg>
