<svg xmlns="http://www.w3.org/2000/svg" viewBox="0 0 85.87 48.55"><defs><style>.cls-1{fill:#0c0c0c;}.cls-2{fill:#d63c18;}.cls-3{fill:none;stroke:#000;stroke-miterlimit:10;}</style></defs><title>Asset 4</title><g id="Layer_2" data-name="Layer 2"><g id="Layer_9" data-name="Layer 9"><path class="cls-1" d="M7.55,29A8.71,8.71,0,0,1,7,32.23a9.37,9.37,0,0,1-2.49,3c-.15,0-.28-1.28-.28-1.28l.79.19s-.53-1-.29-.75.41.74.78.25-.62-.47-.78-.44S6.27,32.13,6,32.9l-.66-1,1.1.12s-.33-.61-.63-.67c-.14,0,1-.43.9.11l-.52-.87.64.07-1-.75.92-.41-.65-.12Z"/><path class="cls-1" d="M1.44,30.39a6.32,6.32,0,0,1,2.5-1.68c1.38-.4,3-.51,3.62.22.1.12-.72.41-.72.41L6.64,29s-.31,1-.33.68c0-.13.23-.75-.38-.71s.11.72.24.83-1.87-.42-1.1-.69l-.21,1.06-.71-.85s-.19.61,0,.86-1-.46-.57-.7l-.24.9-.42-.49v.89l-1-.45.41.75Z"/><path class="cls-2" d="M.32,21C1.85,18.72,35.55-1.27,34.6.06c-3.81,4.76-9.52,13.33-3.81,11.43s9.52-3.81,9.52-1.91S36.5,17.2,42.22,17.2c5.07,0,12.19-3.46,16.94-6.57,3.25,7.15,23.53,17.38,25,23.06a63.77,63.77,0,0,1,1.75,14.86S52.5,17,51.74,22.91C49.23,45.65,15,50.47,4.52,35.24h0a10.2,10.2,0,0,0,3-6.24v-.07h0c-1.6-1.6-6.12,1.46-6.12,1.46C-.21,27.38-.23,25.24.32,21Z"/><path class="cls-2" d="M63.16,5.78c2.49-.36.16,2.11-4,4.85C58.05,8.19,58.91,6.4,63.16,5.78Z"/><polygon class="cls-3" points="13.65 24.82 11.75 22.91 11.75 22.91 11.75 22.91 13.65 24.82"/></g></g></svg>
