<svg xmlns="http://www.w3.org/2000/svg" xmlns:xlink="http://www.w3.org/1999/xlink" viewBox="0 0 1000 201"><defs><style>.cls-1{fill:none;}.cls-2{fill:#f7c394;}.cls-3{fill:#fc9;}.cls-4{fill:#d8a356;}.cls-5{fill:#efbb60;}</style><symbol id="a1" data-name="a1" viewBox="0 0 200 201.27"><rect class="cls-1" y="1" width="200" height="200"/><path class="cls-2" d="M78,164c-.92-1.47,5.18,31.23,0,37-.87,1,45-1,47,0-5.83,1.67-9.41-28.91-4.33-39.93C125.23,151.17,79.27,165.8,78,164Z"/><path class="cls-3" d="M18.69,0c.23,2.4-4,30.2-5.28,45.55C11.64,66.86,53.42,175.26,98.56,171c40.37-3.85,84.07-100.38,83.17-119.47C181.18,39.8,178.46.82,179.09.66,184.49-.76,17.88,2.3,18.69,0Z"/><ellipse cx="150.37" cy="42.91" rx="4.62" ry="3.3"/><ellipse cx="48.39" cy="42.25" rx="4.29" ry="3.3"/><path class="cls-4" d="M74.8,115.19a54.41,54.41,0,0,0,44.22,0s-13.86-3.3-16.5-2.64a10,10,0,0,0-4.29,2.31s-3-2.31-4.29-2.31C89.76,112.55,76.12,117.83,74.8,115.19Z"/><path class="cls-4" d="M114.73,122.78c-3.51,5.8-28.64,6.35-34.65.33"/><path class="cls-5" d="M95.92,53.15l-6.6,33.66c.21,0,7.59,6.93,7.92,6.6l6.6-6.6L98.56,53.15"/></symbol><symbol id="a2" data-name="a2" viewBox="0 0 200 201.27"><rect class="cls-1" y="1" width="200" height="200"/><path class="cls-2" d="M78,164c-.92-1.47,5.18,31.23,0,37-.87,1,45-1,47,0-5.83,1.67-9.41-28.91-4.33-39.93C125.23,151.17,79.27,165.8,78,164Z"/><path class="cls-3" d="M18.69,0c.23,2.4-4,30.2-5.28,45.55C11.64,66.86,53.42,175.26,98.56,171c40.37-3.85,84.07-100.38,83.17-119.47C181.18,39.8,178.46.82,179.09.66,184.49-.76,17.88,2.3,18.69,0Z"/><path d="M155,42.91c0,1.83-2.06,3.31-4.62,3.31s-4.62-1.48-4.62-3.31,2.07-.3,4.62-.3S155,41.09,155,42.91Z"/><path d="M52.68,42.25c0,1.83-1.92,3.3-4.29,3.3s-4.29-1.47-4.29-3.3S46,42,48.39,42,52.68,40.43,52.68,42.25Z"/><path class="cls-4" d="M79.8,115.19s13.46,10.56,37.22,0c0,0-11.86-3.3-14.5-2.64a10,10,0,0,0-4.29,2.31s-3-2.31-4.29-2.31C89.76,112.55,81.12,117.83,79.8,115.19Z"/><path class="cls-4" d="M112.73,122.78c-3.51,5.8-23.64,6.35-29.65.33"/><path class="cls-5" d="M95.92,53.15l-6.6,33.66c.21,0,7.59,6.93,7.92,6.6l6.6-6.6L98.56,53.15"/></symbol><symbol id="a3" data-name="a3" viewBox="0 0 200 201.27"><rect class="cls-1" y="1" width="200" height="200"/><path class="cls-2" d="M78,164c-.92-1.47,5.18,31.23,0,37-.87,1,45-1,47,0-5.83,1.67-9.41-28.91-4.33-39.93C125.23,151.17,79.27,165.8,78,164Z"/><path class="cls-3" d="M18.69,0c.23,2.4-4,30.2-5.28,45.55C11.64,66.86,53.42,175.26,98.56,171c40.37-3.85,84.07-100.38,83.17-119.47C181.18,39.8,178.46.82,179.09.66,184.49-.76,17.88,2.3,18.69,0Z"/><path d="M155,43.91c0,1.83-2.06,2.31-4.62,2.31s-4.62-.48-4.62-2.31,2.07.7,4.62.7S155,42.09,155,43.91Z"/><path d="M52.68,43.25c0,1.83-1.92,2.3-4.29,2.3s-4.29-.47-4.29-2.3,1.92.7,4.29.7S52.68,41.43,52.68,43.25Z"/><path class="cls-4" d="M82,116c.78-.9,10.69,8.89,33,0,0,0-9.36-3.66-12-3a21.5,21.5,0,0,0-4.77,1.86S94.32,113,93,113C88.18,113,81.89,118.55,82,116Z"/><path class="cls-4" d="M113,121c-3.51,5.8-23,7-29,1"/><path class="cls-5" d="M95.92,53.15l-6.6,33.66c.21,0,7.59,6.93,7.92,6.6l6.6-6.6L98.56,53.15"/></symbol><symbol id="a4" data-name="a4" viewBox="0 0 200 201.27"><rect class="cls-1" y="1" width="200" height="200"/><path class="cls-2" d="M78,164c-.92-1.47,5.18,31.23,0,37-.87,1,45-1,47,0-5.83,1.67-9.41-28.91-4.33-39.93C125.23,151.17,79.27,165.8,78,164Z"/><path class="cls-3" d="M18.69,0c.23,2.4-4,30.2-5.28,45.55C11.64,66.86,53.42,175.26,98.56,171c40.37-3.85,84.07-100.38,83.17-119.47C181.18,39.8,178.46.82,179.09.66,184.49-.76,17.88,2.3,18.69,0Z"/><path d="M155,44.91c0,1.09-2.06,1.31-4.62,1.31S145,45,145.75,44.91c.95-.1,2.07.7,4.62.7S155,44,155,44.91Z"/><path d="M52.68,44.25c.76.29-1.92,1.3-4.29,1.3s-3.61.4-4.29-1.3C44,44,46,45,48.39,45S52,44,52.68,44.25Z"/><path class="cls-4" d="M85,118c1-1,11.27,7.37,26,0,0,0-5.84-2.11-8.48-1.45a38.11,38.11,0,0,0-4.29,1.31,16.7,16.7,0,0,0-4.29-1.31A36.25,36.25,0,0,0,85,118Z"/><path class="cls-4" d="M110,122c-3.92,3.92-17.33,4.46-23,0"/><path class="cls-5" d="M95.92,53.15l-6.6,33.66c.21,0,7.59,6.93,7.92,6.6l6.6-6.6L98.56,53.15"/></symbol><symbol id="a5" data-name="a5" viewBox="0 0 200 201.27"><rect class="cls-1" y="1" width="200" height="200"/><path class="cls-2" d="M78,164c-.92-1.47,5.18,31.23,0,37-.87,1,45-1,47,0-5.83,1.67-9.41-28.91-4.33-39.93C125.23,151.17,79.27,165.8,78,164Z"/><path class="cls-3" d="M18.69,0c.23,2.4-4,30.2-5.28,45.55C11.64,66.86,53.42,175.26,98.56,171c40.37-3.85,84.07-100.38,83.17-119.47C181.18,39.8,178.46.82,179.09.66,184.49-.76,17.88,2.3,18.69,0Z"/><path d="M155,44.91c0,1.09-2.06,1.31-4.62,1.31S145,45,145.75,44.91c.95-.1,2.07.7,4.62.7S155,44,155,44.91Z"/><path d="M52.68,44.25c.76.29-1.92,1.3-4.29,1.3s-3.61.4-4.29-1.3C44,44,46,45,48.39,45S52,44,52.68,44.25Z"/><path class="cls-4" d="M84,118c1.18.77,12.7,7.83,28,0,0,0-9.33-1.66-12-1s-3,1-3,1-2.74-.62-4-1C88.79,115.73,85.25,118.34,84,118Z"/><path class="cls-4" d="M111,122c-3.92,3.92-20.33,4.46-26,0"/><path class="cls-5" d="M95.92,53.15l-6.6,33.66c.21,0,7.59,6.93,7.92,6.6l6.6-6.6L98.56,53.15"/></symbol></defs><title>sprite</title><g id="Layer_2" data-name="Layer 2"><g id="sprite"><use width="200" height="201.27" xlink:href="#a1"/><use width="200" height="201.27" transform="translate(200)" xlink:href="#a2"/><use width="200" height="201.27" transform="translate(400)" xlink:href="#a3"/><use width="200" height="201.27" transform="translate(600)" xlink:href="#a4"/><use width="200" height="201.27" transform="translate(800)" xlink:href="#a5"/></g></g></svg>
