<svg xmlns="http://www.w3.org/2000/svg" xmlns:xlink="http://www.w3.org/1999/xlink" viewBox="0 0 599.72 200"><defs><style>.cls-1,.cls-3,.cls-4,.cls-7{fill:none;}.cls-2{fill:#ed4f18;}.cls-3,.cls-7{stroke:#000;}.cls-3,.cls-4,.cls-7{stroke-miterlimit:10;}.cls-3,.cls-4{stroke-width:0.8px;}.cls-4{stroke:#bc2608;}.cls-5{fill:#0c0c0c;}.cls-6{fill:#e04222;}.cls-8{fill:#d63c18;}.cls-9{fill:#c6341c;}.cls-10{fill:#b72815;}.cls-11{fill:#a51b11;}</style><symbol id="fish0" data-name="fish0" viewBox="0 0 100 200"><g id="fisk"><rect class="cls-1" width="100" height="200"/><path id="fisk-2" data-name="fisk" class="cls-2" d="M32.47,64c.61-1,14.55-9.91,14.17-9.34-1.54,2.07-3.83,5.77-1.44,4.88s4-1.74,4-.94-1.5,3.27.91,3.19c4-.14,10.92-5.53,8.68-5.13-7,1.29,8.37,9.37,9.28,12.56s-.55,7.26-.55,7.26S54.44,61.6,54.2,64.1C53.32,75.8,31.35,75.83,32.47,64Z"/><polygon class="cls-3" points="38.15 65.46 37.32 64.68 37.32 64.68 37.32 64.68 38.15 65.46"/><line class="cls-4" x1="33.41" y1="68.03" x2="34.99" y2="67.18"/></g></symbol><symbol id="fish1" data-name="fish1" viewBox="0 0 100 200"><rect id="sprite-2" data-name="sprite" class="cls-1" width="100" height="200"/><path class="cls-5" d="M34.24,68.41a3,3,0,0,1-.64,1.68,3.75,3.75,0,0,1-1.84.76c-.07,0,.15-.49.15-.49l.34.26s-.06-.59,0-.43.05.44.33.28-.2-.35-.29-.37,1-.21.66.1l-.12-.6.5.28s0-.36-.16-.45.58,0,.41.24l-.07-.53.29.16-.32-.55.53,0-.29-.19Z"/><path class="cls-5" d="M31.23,70a2.82,2.82,0,0,1,1-1.32c.67-.34,1.58-.52,2-.2.06.05-.26.41-.26.41l-.29-.31s-.06.54-.1.38,0-.41-.27-.33.13.37.21.41-1,0-.64-.25v.57L32.44,69s0,.33.07.44-.58-.13-.36-.31l0,.5-.26-.22.21.58-.54-.11.25.24Z"/><path class="cls-6" d="M30.31,64.38c.8-1.2,17-12.15,16.53-11.45-2,2.5-3.53,7.45-.53,6.45s4.47-1.45,4.47-.45-1.47,3.45,1.53,3.45c2.67,0,6.41-1.81,8.9-3.45,2,3.15,6.71,13.08,13.1,13.45,4.12.24-2.82,8.19-2.82,8.19S57.71,62.28,57.31,65.38c-1.32,12-20.06,13.44-25.57,5.44h0a2.54,2.54,0,0,0,2.37-2.24v0A3,3,0,0,1,31.71,71a3,3,0,0,0,2.4-2.43C33.27,67.7,31.23,70,31.23,70A8.81,8.81,0,0,1,30.31,64.38Z"/><path class="cls-6" d="M63.31,56.38c1.31-.18.08,1.12-2.1,2.55C60.63,57.65,61.08,56.71,63.31,56.38Z"/><polygon class="cls-7" points="37.31 66.38 36.31 65.38 36.31 65.38 36.31 65.38 37.31 66.38"/></symbol><symbol id="fish2" data-name="fish2" viewBox="0 0 100 200"><rect id="sprite-3" data-name="sprite" class="cls-1" width="100" height="200"/><path class="cls-5" d="M34.42,68.21a4.68,4.68,0,0,1-.28,1.7,5.06,5.06,0,0,1-1.32,1.58c-.07,0-.14-.68-.14-.68l.41.11s-.28-.52-.15-.4.21.39.41.13-.32-.24-.41-.23.81-.57.65-.16l-.35-.5.58.06s-.18-.32-.33-.35.53-.23.47,0l-.27-.45.33,0-.51-.39.48-.22-.34-.06Z"/><path class="cls-5" d="M31.21,68.94a3.29,3.29,0,0,1,1.31-.88c.73-.21,1.58-.27,1.9.12,0,.06-.38.21-.38.21l-.1-.17s-.17.52-.17.36.12-.39-.2-.38.06.39.12.44-1-.22-.57-.36l-.11.56-.38-.45s-.09.32,0,.45-.54-.24-.3-.37l-.13.48L32,68.69v.47l-.53-.24.22.39Z"/><path class="cls-8" d="M30.62,64c.8-1.2,18.5-11.7,18-11-2,2.5-5,7-2,6s5-2,5-1-2,4,1,4c2.67,0,6.41-1.81,8.9-3.45,1.71,3.76,12.36,9.13,13.1,12.11a33.75,33.75,0,0,1,.93,7.81S58,61.91,57.62,65C56.31,77,38.34,79.49,32.82,71.49h0a5.38,5.38,0,0,0,1.6-3.28v0h0c-.84-.85-3.21.76-3.21.76C30.34,67.36,30.33,66.23,30.62,64Z"/><path class="cls-8" d="M63.62,56c1.31-.18.09,1.12-2.1,2.55C60.94,57.28,61.39,56.34,63.62,56Z"/><polygon class="cls-7" points="37.62 66.02 36.62 65.02 36.62 65.02 36.62 65.02 37.62 66.02"/></symbol><symbol id="fish3" data-name="fish3" viewBox="0 0 100 200"><rect id="sprite-4" data-name="sprite" class="cls-1" width="100" height="200"/><path class="cls-5" d="M36.08,68a5.44,5.44,0,0,1-.92,2.18,6.6,6.6,0,0,1-2,1.71c-.09,0-.13-.82-.13-.82h.55s-.18-.72-.06-.53.14.54.45.29-.31-.4-.42-.42,1.14-.43.82,0l-.25-.73.67.26s-.11-.44-.29-.53.71-.1.55.22L34.89,69l.39.16-.5-.65.65-.11L35,68.25Z"/><path class="cls-5" d="M31.1,68.41a2.94,2.94,0,0,1,1.94-1c1.08-.14,2.29-.28,2.72.35.06.1-.57.3-.57.3l-.13-.27s-.28.79-.28.53c0-.1.21-.59-.26-.59s.06.59.15.68-1.39-.43-.8-.6l-.2.85-.5-.73s-.17.49-.05.7-.76-.42-.4-.6l-.23.72-.28-.42,0,.73-.74-.42,0,.7Z"/><path class="cls-9" d="M30.89,64.37c1.2-.71,15.17-11.43,14.18-11.48-2,2.5-1.18,7.48,1.82,6.48s5-2,5-1-2,4,1,4c2.66,0,6-1.84,8.53-3.48,1.71,3.76,12,5.83,12.73,8.81a18.37,18.37,0,0,0,3.69,7s-19.26-12.37-20-9.32c-2.37,10.4-20.16,13.19-24.8,6.47h0s3.2-1.84,2.7-3.94c-.17-.71-4.36-.74-4.58.87C30.34,67.19,30.6,66.59,30.89,64.37Z"/><path class="cls-9" d="M63.53,56.35c1-.61.08,1.11-2.11,2.54C60.84,57.61,61.61,57.54,63.53,56.35Z"/><polygon class="cls-7" points="38.13 65.01 36.74 65.27 36.74 65.27 36.74 65.27 38.13 65.01"/></symbol><symbol id="fish4" data-name="fish4" viewBox="0 0 100 200"><rect class="cls-1" width="100" height="200"/><path class="cls-5" d="M36.39,67.47a3.84,3.84,0,0,1-1,2.7,27.07,27.07,0,0,1-2.37,2.34c-.11,0-.15-1.12-.15-1.12l.65-.06s-.31-.83-.14-.62.23.62.57.28-.43-.43-.55-.43,1.29-.67,1-.1l-.4-.83.83.22s-.19-.52-.41-.6.83-.22.68.19l-.31-.74.49.13-.68-.7.76-.22-.49-.17Z"/><path class="cls-5" d="M30.39,67.91a3.49,3.49,0,0,1,2.29-1.1c1.2-.09,2.75-.29,3.18.43.07.12-.84.42-.84.42l-.13-.31s-.36.86-.34.57c0-.11.26-.64-.25-.67s0,.66.12.77-1.51-.56-.84-.72l-.28.92-.51-.83s-.21.53-.1.77-.81-.51-.4-.69l-.3.79-.29-.49-.08.8-.79-.5v.77Z"/><path class="cls-10" d="M30.31,66.7A3,3,0,0,1,32,64.24c3.45-2.12,11.62-9.81,9.61-11.19-2,2.5,3.25,8.59,5.69,6.58s1.86-6.5,2.89-.94c.17.94-.66,3.83,2.34,3.83,2.66,0,6-1.84,8.54-3.47C62.74,62.8,71.91,62,72.66,65c1,4,5.08,6.21,5.08,6.21,0,.79-19.76-7.94-20.25-5.66-2.23,10.43-19.06,13.77-24.42,7h0s3.55-2.93,3-5c-.17-.69-4.24-.78-5.62.45,0,0-.1,0-.11-.05C30.36,67.43,30.32,67.13,30.31,66.7Z"/><path class="cls-10" d="M60.84,56c1-.61,2.37,1.64.19,3.08C60.45,57.77,58.92,57.16,60.84,56Z"/><polygon class="cls-7" points="37.74 65.17 36.34 65.42 36.34 65.42 36.34 65.42 37.74 65.17"/></symbol><symbol id="fish5" data-name="fish5" viewBox="0 0 100 200"><rect class="cls-1" width="100" height="200"/><path class="cls-5" d="M37,67.38c.24.13.07,2.24-.71,3.25A32.1,32.1,0,0,1,34,73.5c-.13,0-.4-1.22-.4-1.22l.72-.13s-.44-.91-.23-.69.34.68.67.26-.52-.45-.66-.43,1.36-.9,1.08-.23l-.55-.88,1,.15s-.28-.56-.54-.62.9-.34.79.13l-.43-.8.55.09-.83-.71.81-.33L35.37,68Z"/><path class="cls-5" d="M30.48,66.61a3.78,3.78,0,0,1,2.75-.5c1.3.25,3.14.48,3.39,1.37,0,.14-1.16.2-1.16.2l-.05-.36s-.63.8-.53.51c0-.12.47-.61-.06-.79s-.17.71-.1.85-1.43-1-.68-1l-.57.9-.29-1s-.39.49-.33.78c0,.13-.72-.78-.23-.84l-.54.74-.17-.59-.32.82-.69-.77-.23.82Z"/><path class="cls-11" d="M30.48,66.62a3,3,0,0,1,1.6-2.23c3.45-2.13,11.62-9.82,9.61-11.2-2,2.5,3.25,8.6,5.7,6.59s1.86-6.51,2.88-1c.18.94-.65,3.84,2.35,3.84,2.66,0,6-1.84,8.53-3.48C62.86,63,72,62.13,72.79,65.12c1,4,5.08,6.21,5.08,6.21,0,.79-19.76-7.95-20.25-5.66C55.38,76.1,39.34,80.29,34,73.51h0s3.13-3.85,2.63-6c-.16-.69-4.75-2.17-6.13-.94Z"/><path class="cls-11" d="M61,56.11c1-.6,2.38,1.65.19,3.08C60.57,57.91,59.05,57.31,61,56.11Z"/><polygon class="cls-7" points="38.78 64.79 37.55 64.09 37.55 64.09 37.55 64.09 38.78 64.79"/></symbol></defs><title>sprite</title><g id="Layer_2" data-name="Layer 2"><g id="sprite"><use width="100" height="200" xlink:href="#fish0"/><use width="100" height="200" transform="translate(99.57)" xlink:href="#fish1"/><use width="100" height="200" transform="translate(199.52)" xlink:href="#fish2"/><use width="100" height="200" transform="translate(299.8)" xlink:href="#fish3"/><use width="100" height="200" transform="translate(399.84)" xlink:href="#fish4"/><use width="100" height="200" transform="translate(499.72)" xlink:href="#fish5"/></g></g></svg>
